<mxfile host="app.diagrams.net" modified="2021-01-29T17:56:51.113Z" agent="5.0 (X11)" etag="WxMjvUih_Smfp8orKiYG" version="14.2.5" type="github" pages="2">
  <diagram id="W5UovOgnBO6dYOYTDpr0" name="ServiciosDiagram">
    <mxGraphModel dx="862" dy="531" grid="1" gridSize="10" guides="1" tooltips="1" connect="1" arrows="1" fold="1" page="1" pageScale="1" pageWidth="827" pageHeight="1169" math="0" shadow="0">
      <root>
        <mxCell id="0" />
        <mxCell id="1" parent="0" />
        <mxCell id="mN5UHLbo1BGkFWO35L5Y-1" value="servicios" style="shape=table;startSize=30;container=1;collapsible=1;childLayout=tableLayout;fixedRows=1;rowLines=0;fontStyle=1;align=center;resizeLast=1;fillColor=#dae8fc;strokeColor=#6c8ebf;" parent="1" vertex="1">
          <mxGeometry x="30" y="110" width="183" height="270" as="geometry">
            <mxRectangle x="60" y="120" width="80" height="30" as="alternateBounds" />
          </mxGeometry>
        </mxCell>
        <mxCell id="mN5UHLbo1BGkFWO35L5Y-2" value="" style="shape=partialRectangle;collapsible=0;dropTarget=0;pointerEvents=0;fillColor=none;top=0;left=0;bottom=1;right=0;points=[[0,0.5],[1,0.5]];portConstraint=eastwest;" parent="mN5UHLbo1BGkFWO35L5Y-1" vertex="1">
          <mxGeometry y="30" width="183" height="30" as="geometry" />
        </mxCell>
        <mxCell id="mN5UHLbo1BGkFWO35L5Y-3" value="PK" style="shape=partialRectangle;connectable=0;fillColor=none;top=0;left=0;bottom=0;right=0;fontStyle=1;overflow=hidden;" parent="mN5UHLbo1BGkFWO35L5Y-2" vertex="1">
          <mxGeometry width="30" height="30" as="geometry" />
        </mxCell>
        <mxCell id="mN5UHLbo1BGkFWO35L5Y-4" value="id" style="shape=partialRectangle;connectable=0;fillColor=none;top=0;left=0;bottom=0;right=0;align=left;spacingLeft=6;fontStyle=5;overflow=hidden;" parent="mN5UHLbo1BGkFWO35L5Y-2" vertex="1">
          <mxGeometry x="30" width="153" height="30" as="geometry" />
        </mxCell>
        <mxCell id="mN5UHLbo1BGkFWO35L5Y-5" value="" style="shape=partialRectangle;collapsible=0;dropTarget=0;pointerEvents=0;fillColor=none;top=0;left=0;bottom=0;right=0;points=[[0,0.5],[1,0.5]];portConstraint=eastwest;" parent="mN5UHLbo1BGkFWO35L5Y-1" vertex="1">
          <mxGeometry y="60" width="183" height="30" as="geometry" />
        </mxCell>
        <mxCell id="mN5UHLbo1BGkFWO35L5Y-6" value="" style="shape=partialRectangle;connectable=0;fillColor=none;top=0;left=0;bottom=0;right=0;editable=1;overflow=hidden;" parent="mN5UHLbo1BGkFWO35L5Y-5" vertex="1">
          <mxGeometry width="30" height="30" as="geometry" />
        </mxCell>
        <mxCell id="mN5UHLbo1BGkFWO35L5Y-7" value="titulo" style="shape=partialRectangle;connectable=0;fillColor=none;top=0;left=0;bottom=0;right=0;align=left;spacingLeft=6;overflow=hidden;" parent="mN5UHLbo1BGkFWO35L5Y-5" vertex="1">
          <mxGeometry x="30" width="153" height="30" as="geometry" />
        </mxCell>
        <mxCell id="mN5UHLbo1BGkFWO35L5Y-8" value="" style="shape=partialRectangle;collapsible=0;dropTarget=0;pointerEvents=0;fillColor=none;top=0;left=0;bottom=0;right=0;points=[[0,0.5],[1,0.5]];portConstraint=eastwest;" parent="mN5UHLbo1BGkFWO35L5Y-1" vertex="1">
          <mxGeometry y="90" width="183" height="30" as="geometry" />
        </mxCell>
        <mxCell id="mN5UHLbo1BGkFWO35L5Y-9" value="" style="shape=partialRectangle;connectable=0;fillColor=none;top=0;left=0;bottom=0;right=0;editable=1;overflow=hidden;" parent="mN5UHLbo1BGkFWO35L5Y-8" vertex="1">
          <mxGeometry width="30" height="30" as="geometry" />
        </mxCell>
        <mxCell id="mN5UHLbo1BGkFWO35L5Y-10" value="slug" style="shape=partialRectangle;connectable=0;fillColor=none;top=0;left=0;bottom=0;right=0;align=left;spacingLeft=6;overflow=hidden;" parent="mN5UHLbo1BGkFWO35L5Y-8" vertex="1">
          <mxGeometry x="30" width="153" height="30" as="geometry" />
        </mxCell>
        <mxCell id="mN5UHLbo1BGkFWO35L5Y-11" value="" style="shape=partialRectangle;collapsible=0;dropTarget=0;pointerEvents=0;fillColor=none;top=0;left=0;bottom=0;right=0;points=[[0,0.5],[1,0.5]];portConstraint=eastwest;" parent="mN5UHLbo1BGkFWO35L5Y-1" vertex="1">
          <mxGeometry y="120" width="183" height="30" as="geometry" />
        </mxCell>
        <mxCell id="mN5UHLbo1BGkFWO35L5Y-12" value="" style="shape=partialRectangle;connectable=0;fillColor=none;top=0;left=0;bottom=0;right=0;editable=1;overflow=hidden;" parent="mN5UHLbo1BGkFWO35L5Y-11" vertex="1">
          <mxGeometry width="30" height="30" as="geometry" />
        </mxCell>
        <mxCell id="mN5UHLbo1BGkFWO35L5Y-13" value="descripcion" style="shape=partialRectangle;connectable=0;fillColor=none;top=0;left=0;bottom=0;right=0;align=left;spacingLeft=6;overflow=hidden;" parent="mN5UHLbo1BGkFWO35L5Y-11" vertex="1">
          <mxGeometry x="30" width="153" height="30" as="geometry" />
        </mxCell>
        <mxCell id="mN5UHLbo1BGkFWO35L5Y-14" value="" style="shape=partialRectangle;collapsible=0;dropTarget=0;pointerEvents=0;fillColor=none;top=0;left=0;bottom=0;right=0;points=[[0,0.5],[1,0.5]];portConstraint=eastwest;" parent="mN5UHLbo1BGkFWO35L5Y-1" vertex="1">
          <mxGeometry y="150" width="183" height="30" as="geometry" />
        </mxCell>
        <mxCell id="mN5UHLbo1BGkFWO35L5Y-15" value="" style="shape=partialRectangle;connectable=0;fillColor=none;top=0;left=0;bottom=0;right=0;editable=1;overflow=hidden;" parent="mN5UHLbo1BGkFWO35L5Y-14" vertex="1">
          <mxGeometry width="30" height="30" as="geometry" />
        </mxCell>
        <mxCell id="mN5UHLbo1BGkFWO35L5Y-16" value="texto" style="shape=partialRectangle;connectable=0;fillColor=none;top=0;left=0;bottom=0;right=0;align=left;spacingLeft=6;overflow=hidden;" parent="mN5UHLbo1BGkFWO35L5Y-14" vertex="1">
          <mxGeometry x="30" width="153" height="30" as="geometry" />
        </mxCell>
        <mxCell id="mN5UHLbo1BGkFWO35L5Y-17" value="" style="shape=partialRectangle;collapsible=0;dropTarget=0;pointerEvents=0;fillColor=none;top=0;left=0;bottom=0;right=0;points=[[0,0.5],[1,0.5]];portConstraint=eastwest;" parent="mN5UHLbo1BGkFWO35L5Y-1" vertex="1">
          <mxGeometry y="180" width="183" height="30" as="geometry" />
        </mxCell>
        <mxCell id="mN5UHLbo1BGkFWO35L5Y-18" value="" style="shape=partialRectangle;connectable=0;fillColor=none;top=0;left=0;bottom=0;right=0;editable=1;overflow=hidden;" parent="mN5UHLbo1BGkFWO35L5Y-17" vertex="1">
          <mxGeometry width="30" height="30" as="geometry" />
        </mxCell>
        <mxCell id="mN5UHLbo1BGkFWO35L5Y-19" value="idioma_id" style="shape=partialRectangle;connectable=0;fillColor=none;top=0;left=0;bottom=0;right=0;align=left;spacingLeft=6;overflow=hidden;" parent="mN5UHLbo1BGkFWO35L5Y-17" vertex="1">
          <mxGeometry x="30" width="153" height="30" as="geometry" />
        </mxCell>
        <mxCell id="mN5UHLbo1BGkFWO35L5Y-46" value="" style="shape=partialRectangle;collapsible=0;dropTarget=0;pointerEvents=0;fillColor=none;top=0;left=0;bottom=0;right=0;points=[[0,0.5],[1,0.5]];portConstraint=eastwest;" parent="mN5UHLbo1BGkFWO35L5Y-1" vertex="1">
          <mxGeometry y="210" width="183" height="30" as="geometry" />
        </mxCell>
        <mxCell id="mN5UHLbo1BGkFWO35L5Y-47" value="" style="shape=partialRectangle;connectable=0;fillColor=none;top=0;left=0;bottom=0;right=0;editable=1;overflow=hidden;" parent="mN5UHLbo1BGkFWO35L5Y-46" vertex="1">
          <mxGeometry width="30" height="30" as="geometry" />
        </mxCell>
        <mxCell id="mN5UHLbo1BGkFWO35L5Y-48" value="admin_id" style="shape=partialRectangle;connectable=0;fillColor=none;top=0;left=0;bottom=0;right=0;align=left;spacingLeft=6;overflow=hidden;" parent="mN5UHLbo1BGkFWO35L5Y-46" vertex="1">
          <mxGeometry x="30" width="153" height="30" as="geometry" />
        </mxCell>
        <mxCell id="mN5UHLbo1BGkFWO35L5Y-20" value="servicios_imagenes" style="shape=table;startSize=30;container=1;collapsible=1;childLayout=tableLayout;fixedRows=1;rowLines=0;fontStyle=1;align=center;resizeLast=1;fillColor=#d5e8d4;strokeColor=#82b366;" parent="1" vertex="1">
          <mxGeometry x="290" y="30" width="180" height="130" as="geometry" />
        </mxCell>
        <mxCell id="mN5UHLbo1BGkFWO35L5Y-21" value="" style="shape=partialRectangle;collapsible=0;dropTarget=0;pointerEvents=0;fillColor=none;top=0;left=0;bottom=1;right=0;points=[[0,0.5],[1,0.5]];portConstraint=eastwest;" parent="mN5UHLbo1BGkFWO35L5Y-20" vertex="1">
          <mxGeometry y="30" width="180" height="30" as="geometry" />
        </mxCell>
        <mxCell id="mN5UHLbo1BGkFWO35L5Y-22" value="PK" style="shape=partialRectangle;connectable=0;fillColor=none;top=0;left=0;bottom=0;right=0;fontStyle=1;overflow=hidden;" parent="mN5UHLbo1BGkFWO35L5Y-21" vertex="1">
          <mxGeometry width="30" height="30" as="geometry" />
        </mxCell>
        <mxCell id="mN5UHLbo1BGkFWO35L5Y-23" value="id" style="shape=partialRectangle;connectable=0;fillColor=none;top=0;left=0;bottom=0;right=0;align=left;spacingLeft=6;fontStyle=5;overflow=hidden;" parent="mN5UHLbo1BGkFWO35L5Y-21" vertex="1">
          <mxGeometry x="30" width="150" height="30" as="geometry" />
        </mxCell>
        <mxCell id="mN5UHLbo1BGkFWO35L5Y-24" value="" style="shape=partialRectangle;collapsible=0;dropTarget=0;pointerEvents=0;fillColor=none;top=0;left=0;bottom=0;right=0;points=[[0,0.5],[1,0.5]];portConstraint=eastwest;" parent="mN5UHLbo1BGkFWO35L5Y-20" vertex="1">
          <mxGeometry y="60" width="180" height="30" as="geometry" />
        </mxCell>
        <mxCell id="mN5UHLbo1BGkFWO35L5Y-25" value="" style="shape=partialRectangle;connectable=0;fillColor=none;top=0;left=0;bottom=0;right=0;editable=1;overflow=hidden;" parent="mN5UHLbo1BGkFWO35L5Y-24" vertex="1">
          <mxGeometry width="30" height="30" as="geometry" />
        </mxCell>
        <mxCell id="mN5UHLbo1BGkFWO35L5Y-26" value="servicio_id" style="shape=partialRectangle;connectable=0;fillColor=none;top=0;left=0;bottom=0;right=0;align=left;spacingLeft=6;overflow=hidden;" parent="mN5UHLbo1BGkFWO35L5Y-24" vertex="1">
          <mxGeometry x="30" width="150" height="30" as="geometry" />
        </mxCell>
        <mxCell id="mN5UHLbo1BGkFWO35L5Y-27" value="" style="shape=partialRectangle;collapsible=0;dropTarget=0;pointerEvents=0;fillColor=none;top=0;left=0;bottom=0;right=0;points=[[0,0.5],[1,0.5]];portConstraint=eastwest;" parent="mN5UHLbo1BGkFWO35L5Y-20" vertex="1">
          <mxGeometry y="90" width="180" height="30" as="geometry" />
        </mxCell>
        <mxCell id="mN5UHLbo1BGkFWO35L5Y-28" value="" style="shape=partialRectangle;connectable=0;fillColor=none;top=0;left=0;bottom=0;right=0;editable=1;overflow=hidden;" parent="mN5UHLbo1BGkFWO35L5Y-27" vertex="1">
          <mxGeometry width="30" height="30" as="geometry" />
        </mxCell>
        <mxCell id="mN5UHLbo1BGkFWO35L5Y-29" value="multimedia_imagen_id" style="shape=partialRectangle;connectable=0;fillColor=none;top=0;left=0;bottom=0;right=0;align=left;spacingLeft=6;overflow=hidden;" parent="mN5UHLbo1BGkFWO35L5Y-27" vertex="1">
          <mxGeometry x="30" width="150" height="30" as="geometry" />
        </mxCell>
        <mxCell id="mN5UHLbo1BGkFWO35L5Y-33" value="multimedia_imagenes" style="shape=table;startSize=30;container=1;collapsible=1;childLayout=tableLayout;fixedRows=1;rowLines=0;fontStyle=1;align=center;resizeLast=1;fillColor=#dae8fc;strokeColor=#6c8ebf;" parent="1" vertex="1">
          <mxGeometry x="530" y="150" width="180" height="210" as="geometry" />
        </mxCell>
        <mxCell id="mN5UHLbo1BGkFWO35L5Y-34" value="" style="shape=partialRectangle;collapsible=0;dropTarget=0;pointerEvents=0;fillColor=none;top=0;left=0;bottom=1;right=0;points=[[0,0.5],[1,0.5]];portConstraint=eastwest;" parent="mN5UHLbo1BGkFWO35L5Y-33" vertex="1">
          <mxGeometry y="30" width="180" height="30" as="geometry" />
        </mxCell>
        <mxCell id="mN5UHLbo1BGkFWO35L5Y-35" value="PK" style="shape=partialRectangle;connectable=0;fillColor=none;top=0;left=0;bottom=0;right=0;fontStyle=1;overflow=hidden;" parent="mN5UHLbo1BGkFWO35L5Y-34" vertex="1">
          <mxGeometry width="30" height="30" as="geometry" />
        </mxCell>
        <mxCell id="mN5UHLbo1BGkFWO35L5Y-36" value="id" style="shape=partialRectangle;connectable=0;fillColor=none;top=0;left=0;bottom=0;right=0;align=left;spacingLeft=6;fontStyle=5;overflow=hidden;" parent="mN5UHLbo1BGkFWO35L5Y-34" vertex="1">
          <mxGeometry x="30" width="150" height="30" as="geometry" />
        </mxCell>
        <mxCell id="mN5UHLbo1BGkFWO35L5Y-37" value="" style="shape=partialRectangle;collapsible=0;dropTarget=0;pointerEvents=0;fillColor=none;top=0;left=0;bottom=0;right=0;points=[[0,0.5],[1,0.5]];portConstraint=eastwest;" parent="mN5UHLbo1BGkFWO35L5Y-33" vertex="1">
          <mxGeometry y="60" width="180" height="30" as="geometry" />
        </mxCell>
        <mxCell id="mN5UHLbo1BGkFWO35L5Y-38" value="" style="shape=partialRectangle;connectable=0;fillColor=none;top=0;left=0;bottom=0;right=0;editable=1;overflow=hidden;" parent="mN5UHLbo1BGkFWO35L5Y-37" vertex="1">
          <mxGeometry width="30" height="30" as="geometry" />
        </mxCell>
        <mxCell id="mN5UHLbo1BGkFWO35L5Y-39" value="imagen" style="shape=partialRectangle;connectable=0;fillColor=none;top=0;left=0;bottom=0;right=0;align=left;spacingLeft=6;overflow=hidden;" parent="mN5UHLbo1BGkFWO35L5Y-37" vertex="1">
          <mxGeometry x="30" width="150" height="30" as="geometry" />
        </mxCell>
        <mxCell id="mN5UHLbo1BGkFWO35L5Y-40" value="" style="shape=partialRectangle;collapsible=0;dropTarget=0;pointerEvents=0;fillColor=none;top=0;left=0;bottom=0;right=0;points=[[0,0.5],[1,0.5]];portConstraint=eastwest;" parent="mN5UHLbo1BGkFWO35L5Y-33" vertex="1">
          <mxGeometry y="90" width="180" height="30" as="geometry" />
        </mxCell>
        <mxCell id="mN5UHLbo1BGkFWO35L5Y-41" value="" style="shape=partialRectangle;connectable=0;fillColor=none;top=0;left=0;bottom=0;right=0;editable=1;overflow=hidden;" parent="mN5UHLbo1BGkFWO35L5Y-40" vertex="1">
          <mxGeometry width="30" height="30" as="geometry" />
        </mxCell>
        <mxCell id="mN5UHLbo1BGkFWO35L5Y-42" value="alt" style="shape=partialRectangle;connectable=0;fillColor=none;top=0;left=0;bottom=0;right=0;align=left;spacingLeft=6;overflow=hidden;" parent="mN5UHLbo1BGkFWO35L5Y-40" vertex="1">
          <mxGeometry x="30" width="150" height="30" as="geometry" />
        </mxCell>
        <mxCell id="mN5UHLbo1BGkFWO35L5Y-43" value="" style="shape=partialRectangle;collapsible=0;dropTarget=0;pointerEvents=0;fillColor=none;top=0;left=0;bottom=0;right=0;points=[[0,0.5],[1,0.5]];portConstraint=eastwest;" parent="mN5UHLbo1BGkFWO35L5Y-33" vertex="1">
          <mxGeometry y="120" width="180" height="30" as="geometry" />
        </mxCell>
        <mxCell id="mN5UHLbo1BGkFWO35L5Y-44" value="" style="shape=partialRectangle;connectable=0;fillColor=none;top=0;left=0;bottom=0;right=0;editable=1;overflow=hidden;" parent="mN5UHLbo1BGkFWO35L5Y-43" vertex="1">
          <mxGeometry width="30" height="30" as="geometry" />
        </mxCell>
        <mxCell id="mN5UHLbo1BGkFWO35L5Y-45" value="orden" style="shape=partialRectangle;connectable=0;fillColor=none;top=0;left=0;bottom=0;right=0;align=left;spacingLeft=6;overflow=hidden;" parent="mN5UHLbo1BGkFWO35L5Y-43" vertex="1">
          <mxGeometry x="30" width="150" height="30" as="geometry" />
        </mxCell>
        <mxCell id="173J-63wM3XfRQZdWIEK-33" value="" style="shape=partialRectangle;collapsible=0;dropTarget=0;pointerEvents=0;fillColor=none;top=0;left=0;bottom=0;right=0;points=[[0,0.5],[1,0.5]];portConstraint=eastwest;" parent="mN5UHLbo1BGkFWO35L5Y-33" vertex="1">
          <mxGeometry y="150" width="180" height="30" as="geometry" />
        </mxCell>
        <mxCell id="173J-63wM3XfRQZdWIEK-34" value="" style="shape=partialRectangle;connectable=0;fillColor=none;top=0;left=0;bottom=0;right=0;editable=1;overflow=hidden;" parent="173J-63wM3XfRQZdWIEK-33" vertex="1">
          <mxGeometry width="30" height="30" as="geometry" />
        </mxCell>
        <mxCell id="173J-63wM3XfRQZdWIEK-35" value="estado" style="shape=partialRectangle;connectable=0;fillColor=none;top=0;left=0;bottom=0;right=0;align=left;spacingLeft=6;overflow=hidden;" parent="173J-63wM3XfRQZdWIEK-33" vertex="1">
          <mxGeometry x="30" width="150" height="30" as="geometry" />
        </mxCell>
        <mxCell id="173J-63wM3XfRQZdWIEK-36" value="" style="shape=partialRectangle;collapsible=0;dropTarget=0;pointerEvents=0;fillColor=none;top=0;left=0;bottom=0;right=0;points=[[0,0.5],[1,0.5]];portConstraint=eastwest;" parent="mN5UHLbo1BGkFWO35L5Y-33" vertex="1">
          <mxGeometry y="180" width="180" height="30" as="geometry" />
        </mxCell>
        <mxCell id="173J-63wM3XfRQZdWIEK-37" value="" style="shape=partialRectangle;connectable=0;fillColor=none;top=0;left=0;bottom=0;right=0;editable=1;overflow=hidden;" parent="173J-63wM3XfRQZdWIEK-36" vertex="1">
          <mxGeometry width="30" height="30" as="geometry" />
        </mxCell>
        <mxCell id="173J-63wM3XfRQZdWIEK-38" value="summer" style="shape=partialRectangle;connectable=0;fillColor=none;top=0;left=0;bottom=0;right=0;align=left;spacingLeft=6;overflow=hidden;" parent="173J-63wM3XfRQZdWIEK-36" vertex="1">
          <mxGeometry x="30" width="150" height="30" as="geometry" />
        </mxCell>
        <mxCell id="173J-63wM3XfRQZdWIEK-1" value="" style="edgeStyle=entityRelationEdgeStyle;fontSize=12;html=1;endArrow=ERoneToMany;entryX=-0.022;entryY=0.2;entryDx=0;entryDy=0;entryPerimeter=0;exitX=1;exitY=0.5;exitDx=0;exitDy=0;fillColor=#d5e8d4;strokeColor=#82b366;" parent="1" source="mN5UHLbo1BGkFWO35L5Y-1" target="mN5UHLbo1BGkFWO35L5Y-24" edge="1">
          <mxGeometry width="100" height="100" relative="1" as="geometry">
            <mxPoint x="210" y="260" as="sourcePoint" />
            <mxPoint x="310" y="160" as="targetPoint" />
          </mxGeometry>
        </mxCell>
        <mxCell id="173J-63wM3XfRQZdWIEK-2" value="" style="edgeStyle=entityRelationEdgeStyle;fontSize=12;html=1;endArrow=ERoneToMany;entryX=1;entryY=0.5;entryDx=0;entryDy=0;exitX=0;exitY=0.5;exitDx=0;exitDy=0;fillColor=#d5e8d4;strokeColor=#82b366;" parent="1" source="mN5UHLbo1BGkFWO35L5Y-40" target="mN5UHLbo1BGkFWO35L5Y-24" edge="1">
          <mxGeometry width="100" height="100" relative="1" as="geometry">
            <mxPoint x="360" y="330" as="sourcePoint" />
            <mxPoint x="460" y="230" as="targetPoint" />
          </mxGeometry>
        </mxCell>
        <mxCell id="173J-63wM3XfRQZdWIEK-3" value="idiomas" style="shape=table;startSize=30;container=1;collapsible=1;childLayout=tableLayout;fixedRows=1;rowLines=0;fontStyle=1;align=center;resizeLast=1;fillColor=#fff2cc;strokeColor=#d6b656;" parent="1" vertex="1" collapsed="1">
          <mxGeometry x="290" y="340" width="150" height="30" as="geometry">
            <mxRectangle x="280" y="300" width="180" height="160" as="alternateBounds" />
          </mxGeometry>
        </mxCell>
        <mxCell id="173J-63wM3XfRQZdWIEK-4" value="" style="shape=partialRectangle;collapsible=0;dropTarget=0;pointerEvents=0;fillColor=none;top=0;left=0;bottom=1;right=0;points=[[0,0.5],[1,0.5]];portConstraint=eastwest;" parent="173J-63wM3XfRQZdWIEK-3" vertex="1">
          <mxGeometry y="30" width="180" height="30" as="geometry" />
        </mxCell>
        <mxCell id="173J-63wM3XfRQZdWIEK-5" value="PK" style="shape=partialRectangle;connectable=0;fillColor=none;top=0;left=0;bottom=0;right=0;fontStyle=1;overflow=hidden;" parent="173J-63wM3XfRQZdWIEK-4" vertex="1">
          <mxGeometry width="30" height="30" as="geometry" />
        </mxCell>
        <mxCell id="173J-63wM3XfRQZdWIEK-6" value="id" style="shape=partialRectangle;connectable=0;fillColor=none;top=0;left=0;bottom=0;right=0;align=left;spacingLeft=6;fontStyle=5;overflow=hidden;" parent="173J-63wM3XfRQZdWIEK-4" vertex="1">
          <mxGeometry x="30" width="150" height="30" as="geometry" />
        </mxCell>
        <mxCell id="173J-63wM3XfRQZdWIEK-7" value="" style="shape=partialRectangle;collapsible=0;dropTarget=0;pointerEvents=0;fillColor=none;top=0;left=0;bottom=0;right=0;points=[[0,0.5],[1,0.5]];portConstraint=eastwest;" parent="173J-63wM3XfRQZdWIEK-3" vertex="1">
          <mxGeometry y="60" width="180" height="30" as="geometry" />
        </mxCell>
        <mxCell id="173J-63wM3XfRQZdWIEK-8" value="" style="shape=partialRectangle;connectable=0;fillColor=none;top=0;left=0;bottom=0;right=0;editable=1;overflow=hidden;" parent="173J-63wM3XfRQZdWIEK-7" vertex="1">
          <mxGeometry width="30" height="30" as="geometry" />
        </mxCell>
        <mxCell id="173J-63wM3XfRQZdWIEK-9" value="" style="shape=partialRectangle;connectable=0;fillColor=none;top=0;left=0;bottom=0;right=0;align=left;spacingLeft=6;overflow=hidden;" parent="173J-63wM3XfRQZdWIEK-7" vertex="1">
          <mxGeometry x="30" width="150" height="30" as="geometry" />
        </mxCell>
        <mxCell id="173J-63wM3XfRQZdWIEK-10" value="" style="shape=partialRectangle;collapsible=0;dropTarget=0;pointerEvents=0;fillColor=none;top=0;left=0;bottom=0;right=0;points=[[0,0.5],[1,0.5]];portConstraint=eastwest;" parent="173J-63wM3XfRQZdWIEK-3" vertex="1">
          <mxGeometry y="90" width="180" height="30" as="geometry" />
        </mxCell>
        <mxCell id="173J-63wM3XfRQZdWIEK-11" value="" style="shape=partialRectangle;connectable=0;fillColor=none;top=0;left=0;bottom=0;right=0;editable=1;overflow=hidden;" parent="173J-63wM3XfRQZdWIEK-10" vertex="1">
          <mxGeometry width="30" height="30" as="geometry" />
        </mxCell>
        <mxCell id="173J-63wM3XfRQZdWIEK-12" value="" style="shape=partialRectangle;connectable=0;fillColor=none;top=0;left=0;bottom=0;right=0;align=left;spacingLeft=6;overflow=hidden;" parent="173J-63wM3XfRQZdWIEK-10" vertex="1">
          <mxGeometry x="30" width="150" height="30" as="geometry" />
        </mxCell>
        <mxCell id="173J-63wM3XfRQZdWIEK-13" value="" style="shape=partialRectangle;collapsible=0;dropTarget=0;pointerEvents=0;fillColor=none;top=0;left=0;bottom=0;right=0;points=[[0,0.5],[1,0.5]];portConstraint=eastwest;" parent="173J-63wM3XfRQZdWIEK-3" vertex="1">
          <mxGeometry y="120" width="180" height="30" as="geometry" />
        </mxCell>
        <mxCell id="173J-63wM3XfRQZdWIEK-14" value="" style="shape=partialRectangle;connectable=0;fillColor=none;top=0;left=0;bottom=0;right=0;editable=1;overflow=hidden;" parent="173J-63wM3XfRQZdWIEK-13" vertex="1">
          <mxGeometry width="30" height="30" as="geometry" />
        </mxCell>
        <mxCell id="173J-63wM3XfRQZdWIEK-15" value="" style="shape=partialRectangle;connectable=0;fillColor=none;top=0;left=0;bottom=0;right=0;align=left;spacingLeft=6;overflow=hidden;" parent="173J-63wM3XfRQZdWIEK-13" vertex="1">
          <mxGeometry x="30" width="150" height="30" as="geometry" />
        </mxCell>
        <mxCell id="173J-63wM3XfRQZdWIEK-16" value="admins" style="shape=table;startSize=30;container=1;collapsible=1;childLayout=tableLayout;fixedRows=1;rowLines=0;fontStyle=1;align=center;resizeLast=1;fillColor=#fff2cc;strokeColor=#d6b656;" parent="1" vertex="1" collapsed="1">
          <mxGeometry x="290" y="250" width="150" height="30" as="geometry">
            <mxRectangle x="280" y="300" width="180" height="160" as="alternateBounds" />
          </mxGeometry>
        </mxCell>
        <mxCell id="173J-63wM3XfRQZdWIEK-17" value="" style="shape=partialRectangle;collapsible=0;dropTarget=0;pointerEvents=0;fillColor=none;top=0;left=0;bottom=1;right=0;points=[[0,0.5],[1,0.5]];portConstraint=eastwest;" parent="173J-63wM3XfRQZdWIEK-16" vertex="1">
          <mxGeometry y="30" width="180" height="30" as="geometry" />
        </mxCell>
        <mxCell id="173J-63wM3XfRQZdWIEK-18" value="PK" style="shape=partialRectangle;connectable=0;fillColor=none;top=0;left=0;bottom=0;right=0;fontStyle=1;overflow=hidden;" parent="173J-63wM3XfRQZdWIEK-17" vertex="1">
          <mxGeometry width="30" height="30" as="geometry" />
        </mxCell>
        <mxCell id="173J-63wM3XfRQZdWIEK-19" value="id" style="shape=partialRectangle;connectable=0;fillColor=none;top=0;left=0;bottom=0;right=0;align=left;spacingLeft=6;fontStyle=5;overflow=hidden;" parent="173J-63wM3XfRQZdWIEK-17" vertex="1">
          <mxGeometry x="30" width="150" height="30" as="geometry" />
        </mxCell>
        <mxCell id="173J-63wM3XfRQZdWIEK-20" value="" style="shape=partialRectangle;collapsible=0;dropTarget=0;pointerEvents=0;fillColor=none;top=0;left=0;bottom=0;right=0;points=[[0,0.5],[1,0.5]];portConstraint=eastwest;" parent="173J-63wM3XfRQZdWIEK-16" vertex="1">
          <mxGeometry y="60" width="180" height="30" as="geometry" />
        </mxCell>
        <mxCell id="173J-63wM3XfRQZdWIEK-21" value="" style="shape=partialRectangle;connectable=0;fillColor=none;top=0;left=0;bottom=0;right=0;editable=1;overflow=hidden;" parent="173J-63wM3XfRQZdWIEK-20" vertex="1">
          <mxGeometry width="30" height="30" as="geometry" />
        </mxCell>
        <mxCell id="173J-63wM3XfRQZdWIEK-22" value="" style="shape=partialRectangle;connectable=0;fillColor=none;top=0;left=0;bottom=0;right=0;align=left;spacingLeft=6;overflow=hidden;" parent="173J-63wM3XfRQZdWIEK-20" vertex="1">
          <mxGeometry x="30" width="150" height="30" as="geometry" />
        </mxCell>
        <mxCell id="173J-63wM3XfRQZdWIEK-23" value="" style="shape=partialRectangle;collapsible=0;dropTarget=0;pointerEvents=0;fillColor=none;top=0;left=0;bottom=0;right=0;points=[[0,0.5],[1,0.5]];portConstraint=eastwest;" parent="173J-63wM3XfRQZdWIEK-16" vertex="1">
          <mxGeometry y="90" width="180" height="30" as="geometry" />
        </mxCell>
        <mxCell id="173J-63wM3XfRQZdWIEK-24" value="" style="shape=partialRectangle;connectable=0;fillColor=none;top=0;left=0;bottom=0;right=0;editable=1;overflow=hidden;" parent="173J-63wM3XfRQZdWIEK-23" vertex="1">
          <mxGeometry width="30" height="30" as="geometry" />
        </mxCell>
        <mxCell id="173J-63wM3XfRQZdWIEK-25" value="" style="shape=partialRectangle;connectable=0;fillColor=none;top=0;left=0;bottom=0;right=0;align=left;spacingLeft=6;overflow=hidden;" parent="173J-63wM3XfRQZdWIEK-23" vertex="1">
          <mxGeometry x="30" width="150" height="30" as="geometry" />
        </mxCell>
        <mxCell id="173J-63wM3XfRQZdWIEK-26" value="" style="shape=partialRectangle;collapsible=0;dropTarget=0;pointerEvents=0;fillColor=none;top=0;left=0;bottom=0;right=0;points=[[0,0.5],[1,0.5]];portConstraint=eastwest;" parent="173J-63wM3XfRQZdWIEK-16" vertex="1">
          <mxGeometry y="120" width="180" height="30" as="geometry" />
        </mxCell>
        <mxCell id="173J-63wM3XfRQZdWIEK-27" value="" style="shape=partialRectangle;connectable=0;fillColor=none;top=0;left=0;bottom=0;right=0;editable=1;overflow=hidden;" parent="173J-63wM3XfRQZdWIEK-26" vertex="1">
          <mxGeometry width="30" height="30" as="geometry" />
        </mxCell>
        <mxCell id="173J-63wM3XfRQZdWIEK-28" value="" style="shape=partialRectangle;connectable=0;fillColor=none;top=0;left=0;bottom=0;right=0;align=left;spacingLeft=6;overflow=hidden;" parent="173J-63wM3XfRQZdWIEK-26" vertex="1">
          <mxGeometry x="30" width="150" height="30" as="geometry" />
        </mxCell>
        <mxCell id="173J-63wM3XfRQZdWIEK-29" value="" style="edgeStyle=entityRelationEdgeStyle;fontSize=12;html=1;endArrow=ERoneToMany;exitX=0;exitY=0.5;exitDx=0;exitDy=0;entryX=1;entryY=0.75;entryDx=0;entryDy=0;" parent="1" source="173J-63wM3XfRQZdWIEK-16" target="mN5UHLbo1BGkFWO35L5Y-1" edge="1">
          <mxGeometry width="100" height="100" relative="1" as="geometry">
            <mxPoint x="360" y="330" as="sourcePoint" />
            <mxPoint x="460" y="230" as="targetPoint" />
          </mxGeometry>
        </mxCell>
        <mxCell id="173J-63wM3XfRQZdWIEK-30" value="" style="edgeStyle=entityRelationEdgeStyle;fontSize=12;html=1;endArrow=ERoneToMany;entryX=1.005;entryY=0.167;entryDx=0;entryDy=0;entryPerimeter=0;exitX=0;exitY=0.5;exitDx=0;exitDy=0;" parent="1" source="173J-63wM3XfRQZdWIEK-3" target="mN5UHLbo1BGkFWO35L5Y-46" edge="1">
          <mxGeometry width="100" height="100" relative="1" as="geometry">
            <mxPoint x="360" y="330" as="sourcePoint" />
            <mxPoint x="460" y="230" as="targetPoint" />
          </mxGeometry>
        </mxCell>
        <mxCell id="173J-63wM3XfRQZdWIEK-62" value="estado" style="shape=partialRectangle;connectable=0;fillColor=none;top=0;left=0;bottom=0;right=0;align=left;spacingLeft=6;overflow=hidden;" parent="1" vertex="1">
          <mxGeometry x="60" y="350" width="153" height="30" as="geometry" />
        </mxCell>
      </root>
    </mxGraphModel>
  </diagram>
  <diagram name="Copy of ServiciosDiagram" id="X-2gMqQZcyuWxs8eprEi">
    <mxGraphModel dx="862" dy="531" grid="1" gridSize="10" guides="1" tooltips="1" connect="1" arrows="1" fold="1" page="1" pageScale="1" pageWidth="827" pageHeight="1169" math="0" shadow="0">
      <root>
        <mxCell id="b_Ao8sM2cp6gKVqPy1S7-0" />
        <mxCell id="b_Ao8sM2cp6gKVqPy1S7-1" parent="b_Ao8sM2cp6gKVqPy1S7-0" />
        <mxCell id="b_Ao8sM2cp6gKVqPy1S7-2" value="proyectos" style="shape=table;startSize=30;container=1;collapsible=1;childLayout=tableLayout;fixedRows=1;rowLines=0;fontStyle=1;align=center;resizeLast=1;fillColor=#dae8fc;strokeColor=#6c8ebf;" vertex="1" parent="b_Ao8sM2cp6gKVqPy1S7-1">
          <mxGeometry x="30" y="110" width="183" height="390" as="geometry">
            <mxRectangle x="60" y="120" width="80" height="30" as="alternateBounds" />
          </mxGeometry>
        </mxCell>
        <mxCell id="b_Ao8sM2cp6gKVqPy1S7-3" value="" style="shape=partialRectangle;collapsible=0;dropTarget=0;pointerEvents=0;fillColor=none;top=0;left=0;bottom=1;right=0;points=[[0,0.5],[1,0.5]];portConstraint=eastwest;" vertex="1" parent="b_Ao8sM2cp6gKVqPy1S7-2">
          <mxGeometry y="30" width="183" height="30" as="geometry" />
        </mxCell>
        <mxCell id="b_Ao8sM2cp6gKVqPy1S7-4" value="PK" style="shape=partialRectangle;connectable=0;fillColor=none;top=0;left=0;bottom=0;right=0;fontStyle=1;overflow=hidden;" vertex="1" parent="b_Ao8sM2cp6gKVqPy1S7-3">
          <mxGeometry width="30" height="30" as="geometry" />
        </mxCell>
        <mxCell id="b_Ao8sM2cp6gKVqPy1S7-5" value="id" style="shape=partialRectangle;connectable=0;fillColor=none;top=0;left=0;bottom=0;right=0;align=left;spacingLeft=6;fontStyle=5;overflow=hidden;" vertex="1" parent="b_Ao8sM2cp6gKVqPy1S7-3">
          <mxGeometry x="30" width="153" height="30" as="geometry" />
        </mxCell>
        <mxCell id="b_Ao8sM2cp6gKVqPy1S7-6" value="" style="shape=partialRectangle;collapsible=0;dropTarget=0;pointerEvents=0;fillColor=none;top=0;left=0;bottom=0;right=0;points=[[0,0.5],[1,0.5]];portConstraint=eastwest;" vertex="1" parent="b_Ao8sM2cp6gKVqPy1S7-2">
          <mxGeometry y="60" width="183" height="30" as="geometry" />
        </mxCell>
        <mxCell id="b_Ao8sM2cp6gKVqPy1S7-7" value="" style="shape=partialRectangle;connectable=0;fillColor=none;top=0;left=0;bottom=0;right=0;editable=1;overflow=hidden;" vertex="1" parent="b_Ao8sM2cp6gKVqPy1S7-6">
          <mxGeometry width="30" height="30" as="geometry" />
        </mxCell>
        <mxCell id="b_Ao8sM2cp6gKVqPy1S7-8" value="titulo" style="shape=partialRectangle;connectable=0;fillColor=none;top=0;left=0;bottom=0;right=0;align=left;spacingLeft=6;overflow=hidden;" vertex="1" parent="b_Ao8sM2cp6gKVqPy1S7-6">
          <mxGeometry x="30" width="153" height="30" as="geometry" />
        </mxCell>
        <mxCell id="b_Ao8sM2cp6gKVqPy1S7-9" value="" style="shape=partialRectangle;collapsible=0;dropTarget=0;pointerEvents=0;fillColor=none;top=0;left=0;bottom=0;right=0;points=[[0,0.5],[1,0.5]];portConstraint=eastwest;" vertex="1" parent="b_Ao8sM2cp6gKVqPy1S7-2">
          <mxGeometry y="90" width="183" height="30" as="geometry" />
        </mxCell>
        <mxCell id="b_Ao8sM2cp6gKVqPy1S7-10" value="" style="shape=partialRectangle;connectable=0;fillColor=none;top=0;left=0;bottom=0;right=0;editable=1;overflow=hidden;" vertex="1" parent="b_Ao8sM2cp6gKVqPy1S7-9">
          <mxGeometry width="30" height="30" as="geometry" />
        </mxCell>
        <mxCell id="b_Ao8sM2cp6gKVqPy1S7-11" value="slug" style="shape=partialRectangle;connectable=0;fillColor=none;top=0;left=0;bottom=0;right=0;align=left;spacingLeft=6;overflow=hidden;" vertex="1" parent="b_Ao8sM2cp6gKVqPy1S7-9">
          <mxGeometry x="30" width="153" height="30" as="geometry" />
        </mxCell>
        <mxCell id="b_Ao8sM2cp6gKVqPy1S7-12" value="" style="shape=partialRectangle;collapsible=0;dropTarget=0;pointerEvents=0;fillColor=none;top=0;left=0;bottom=0;right=0;points=[[0,0.5],[1,0.5]];portConstraint=eastwest;" vertex="1" parent="b_Ao8sM2cp6gKVqPy1S7-2">
          <mxGeometry y="120" width="183" height="30" as="geometry" />
        </mxCell>
        <mxCell id="b_Ao8sM2cp6gKVqPy1S7-13" value="" style="shape=partialRectangle;connectable=0;fillColor=none;top=0;left=0;bottom=0;right=0;editable=1;overflow=hidden;" vertex="1" parent="b_Ao8sM2cp6gKVqPy1S7-12">
          <mxGeometry width="30" height="30" as="geometry" />
        </mxCell>
        <mxCell id="b_Ao8sM2cp6gKVqPy1S7-14" value="descripcion" style="shape=partialRectangle;connectable=0;fillColor=none;top=0;left=0;bottom=0;right=0;align=left;spacingLeft=6;overflow=hidden;" vertex="1" parent="b_Ao8sM2cp6gKVqPy1S7-12">
          <mxGeometry x="30" width="153" height="30" as="geometry" />
        </mxCell>
        <mxCell id="b_Ao8sM2cp6gKVqPy1S7-15" value="" style="shape=partialRectangle;collapsible=0;dropTarget=0;pointerEvents=0;fillColor=none;top=0;left=0;bottom=0;right=0;points=[[0,0.5],[1,0.5]];portConstraint=eastwest;" vertex="1" parent="b_Ao8sM2cp6gKVqPy1S7-2">
          <mxGeometry y="150" width="183" height="30" as="geometry" />
        </mxCell>
        <mxCell id="b_Ao8sM2cp6gKVqPy1S7-16" value="" style="shape=partialRectangle;connectable=0;fillColor=none;top=0;left=0;bottom=0;right=0;editable=1;overflow=hidden;" vertex="1" parent="b_Ao8sM2cp6gKVqPy1S7-15">
          <mxGeometry width="30" height="30" as="geometry" />
        </mxCell>
        <mxCell id="b_Ao8sM2cp6gKVqPy1S7-17" value="texto" style="shape=partialRectangle;connectable=0;fillColor=none;top=0;left=0;bottom=0;right=0;align=left;spacingLeft=6;overflow=hidden;" vertex="1" parent="b_Ao8sM2cp6gKVqPy1S7-15">
          <mxGeometry x="30" width="153" height="30" as="geometry" />
        </mxCell>
        <mxCell id="b_Ao8sM2cp6gKVqPy1S7-18" value="" style="shape=partialRectangle;collapsible=0;dropTarget=0;pointerEvents=0;fillColor=none;top=0;left=0;bottom=0;right=0;points=[[0,0.5],[1,0.5]];portConstraint=eastwest;" vertex="1" parent="b_Ao8sM2cp6gKVqPy1S7-2">
          <mxGeometry y="180" width="183" height="30" as="geometry" />
        </mxCell>
        <mxCell id="b_Ao8sM2cp6gKVqPy1S7-19" value="" style="shape=partialRectangle;connectable=0;fillColor=none;top=0;left=0;bottom=0;right=0;editable=1;overflow=hidden;" vertex="1" parent="b_Ao8sM2cp6gKVqPy1S7-18">
          <mxGeometry width="30" height="30" as="geometry" />
        </mxCell>
        <mxCell id="b_Ao8sM2cp6gKVqPy1S7-20" value="idioma_id" style="shape=partialRectangle;connectable=0;fillColor=none;top=0;left=0;bottom=0;right=0;align=left;spacingLeft=6;overflow=hidden;" vertex="1" parent="b_Ao8sM2cp6gKVqPy1S7-18">
          <mxGeometry x="30" width="153" height="30" as="geometry" />
        </mxCell>
        <mxCell id="b_Ao8sM2cp6gKVqPy1S7-21" value="" style="shape=partialRectangle;collapsible=0;dropTarget=0;pointerEvents=0;fillColor=none;top=0;left=0;bottom=0;right=0;points=[[0,0.5],[1,0.5]];portConstraint=eastwest;" vertex="1" parent="b_Ao8sM2cp6gKVqPy1S7-2">
          <mxGeometry y="210" width="183" height="30" as="geometry" />
        </mxCell>
        <mxCell id="b_Ao8sM2cp6gKVqPy1S7-22" value="" style="shape=partialRectangle;connectable=0;fillColor=none;top=0;left=0;bottom=0;right=0;editable=1;overflow=hidden;" vertex="1" parent="b_Ao8sM2cp6gKVqPy1S7-21">
          <mxGeometry width="30" height="30" as="geometry" />
        </mxCell>
        <mxCell id="b_Ao8sM2cp6gKVqPy1S7-23" value="admin_id" style="shape=partialRectangle;connectable=0;fillColor=none;top=0;left=0;bottom=0;right=0;align=left;spacingLeft=6;overflow=hidden;" vertex="1" parent="b_Ao8sM2cp6gKVqPy1S7-21">
          <mxGeometry x="30" width="153" height="30" as="geometry" />
        </mxCell>
        <mxCell id="b_Ao8sM2cp6gKVqPy1S7-24" value="proyectos_imagenes" style="shape=table;startSize=30;container=1;collapsible=1;childLayout=tableLayout;fixedRows=1;rowLines=0;fontStyle=1;align=center;resizeLast=1;fillColor=#d5e8d4;strokeColor=#82b366;" vertex="1" parent="b_Ao8sM2cp6gKVqPy1S7-1">
          <mxGeometry x="290" y="30" width="180" height="130" as="geometry" />
        </mxCell>
        <mxCell id="b_Ao8sM2cp6gKVqPy1S7-25" value="" style="shape=partialRectangle;collapsible=0;dropTarget=0;pointerEvents=0;fillColor=none;top=0;left=0;bottom=1;right=0;points=[[0,0.5],[1,0.5]];portConstraint=eastwest;" vertex="1" parent="b_Ao8sM2cp6gKVqPy1S7-24">
          <mxGeometry y="30" width="180" height="30" as="geometry" />
        </mxCell>
        <mxCell id="b_Ao8sM2cp6gKVqPy1S7-26" value="PK" style="shape=partialRectangle;connectable=0;fillColor=none;top=0;left=0;bottom=0;right=0;fontStyle=1;overflow=hidden;" vertex="1" parent="b_Ao8sM2cp6gKVqPy1S7-25">
          <mxGeometry width="30" height="30" as="geometry" />
        </mxCell>
        <mxCell id="b_Ao8sM2cp6gKVqPy1S7-27" value="id" style="shape=partialRectangle;connectable=0;fillColor=none;top=0;left=0;bottom=0;right=0;align=left;spacingLeft=6;fontStyle=5;overflow=hidden;" vertex="1" parent="b_Ao8sM2cp6gKVqPy1S7-25">
          <mxGeometry x="30" width="150" height="30" as="geometry" />
        </mxCell>
        <mxCell id="b_Ao8sM2cp6gKVqPy1S7-28" value="" style="shape=partialRectangle;collapsible=0;dropTarget=0;pointerEvents=0;fillColor=none;top=0;left=0;bottom=0;right=0;points=[[0,0.5],[1,0.5]];portConstraint=eastwest;" vertex="1" parent="b_Ao8sM2cp6gKVqPy1S7-24">
          <mxGeometry y="60" width="180" height="30" as="geometry" />
        </mxCell>
        <mxCell id="b_Ao8sM2cp6gKVqPy1S7-29" value="" style="shape=partialRectangle;connectable=0;fillColor=none;top=0;left=0;bottom=0;right=0;editable=1;overflow=hidden;" vertex="1" parent="b_Ao8sM2cp6gKVqPy1S7-28">
          <mxGeometry width="30" height="30" as="geometry" />
        </mxCell>
        <mxCell id="b_Ao8sM2cp6gKVqPy1S7-30" value="proyecto_id" style="shape=partialRectangle;connectable=0;fillColor=none;top=0;left=0;bottom=0;right=0;align=left;spacingLeft=6;overflow=hidden;" vertex="1" parent="b_Ao8sM2cp6gKVqPy1S7-28">
          <mxGeometry x="30" width="150" height="30" as="geometry" />
        </mxCell>
        <mxCell id="b_Ao8sM2cp6gKVqPy1S7-31" value="" style="shape=partialRectangle;collapsible=0;dropTarget=0;pointerEvents=0;fillColor=none;top=0;left=0;bottom=0;right=0;points=[[0,0.5],[1,0.5]];portConstraint=eastwest;" vertex="1" parent="b_Ao8sM2cp6gKVqPy1S7-24">
          <mxGeometry y="90" width="180" height="30" as="geometry" />
        </mxCell>
        <mxCell id="b_Ao8sM2cp6gKVqPy1S7-32" value="" style="shape=partialRectangle;connectable=0;fillColor=none;top=0;left=0;bottom=0;right=0;editable=1;overflow=hidden;" vertex="1" parent="b_Ao8sM2cp6gKVqPy1S7-31">
          <mxGeometry width="30" height="30" as="geometry" />
        </mxCell>
        <mxCell id="b_Ao8sM2cp6gKVqPy1S7-33" value="multimedia_imagen_id" style="shape=partialRectangle;connectable=0;fillColor=none;top=0;left=0;bottom=0;right=0;align=left;spacingLeft=6;overflow=hidden;" vertex="1" parent="b_Ao8sM2cp6gKVqPy1S7-31">
          <mxGeometry x="30" width="150" height="30" as="geometry" />
        </mxCell>
        <mxCell id="b_Ao8sM2cp6gKVqPy1S7-34" value="multimedia_imagenes" style="shape=table;startSize=30;container=1;collapsible=1;childLayout=tableLayout;fixedRows=1;rowLines=0;fontStyle=1;align=center;resizeLast=1;fillColor=#dae8fc;strokeColor=#6c8ebf;" vertex="1" parent="b_Ao8sM2cp6gKVqPy1S7-1">
          <mxGeometry x="530" y="150" width="180" height="210" as="geometry" />
        </mxCell>
        <mxCell id="b_Ao8sM2cp6gKVqPy1S7-35" value="" style="shape=partialRectangle;collapsible=0;dropTarget=0;pointerEvents=0;fillColor=none;top=0;left=0;bottom=1;right=0;points=[[0,0.5],[1,0.5]];portConstraint=eastwest;" vertex="1" parent="b_Ao8sM2cp6gKVqPy1S7-34">
          <mxGeometry y="30" width="180" height="30" as="geometry" />
        </mxCell>
        <mxCell id="b_Ao8sM2cp6gKVqPy1S7-36" value="PK" style="shape=partialRectangle;connectable=0;fillColor=none;top=0;left=0;bottom=0;right=0;fontStyle=1;overflow=hidden;" vertex="1" parent="b_Ao8sM2cp6gKVqPy1S7-35">
          <mxGeometry width="30" height="30" as="geometry" />
        </mxCell>
        <mxCell id="b_Ao8sM2cp6gKVqPy1S7-37" value="id" style="shape=partialRectangle;connectable=0;fillColor=none;top=0;left=0;bottom=0;right=0;align=left;spacingLeft=6;fontStyle=5;overflow=hidden;" vertex="1" parent="b_Ao8sM2cp6gKVqPy1S7-35">
          <mxGeometry x="30" width="150" height="30" as="geometry" />
        </mxCell>
        <mxCell id="b_Ao8sM2cp6gKVqPy1S7-38" value="" style="shape=partialRectangle;collapsible=0;dropTarget=0;pointerEvents=0;fillColor=none;top=0;left=0;bottom=0;right=0;points=[[0,0.5],[1,0.5]];portConstraint=eastwest;" vertex="1" parent="b_Ao8sM2cp6gKVqPy1S7-34">
          <mxGeometry y="60" width="180" height="30" as="geometry" />
        </mxCell>
        <mxCell id="b_Ao8sM2cp6gKVqPy1S7-39" value="" style="shape=partialRectangle;connectable=0;fillColor=none;top=0;left=0;bottom=0;right=0;editable=1;overflow=hidden;" vertex="1" parent="b_Ao8sM2cp6gKVqPy1S7-38">
          <mxGeometry width="30" height="30" as="geometry" />
        </mxCell>
        <mxCell id="b_Ao8sM2cp6gKVqPy1S7-40" value="imagen" style="shape=partialRectangle;connectable=0;fillColor=none;top=0;left=0;bottom=0;right=0;align=left;spacingLeft=6;overflow=hidden;" vertex="1" parent="b_Ao8sM2cp6gKVqPy1S7-38">
          <mxGeometry x="30" width="150" height="30" as="geometry" />
        </mxCell>
        <mxCell id="b_Ao8sM2cp6gKVqPy1S7-41" value="" style="shape=partialRectangle;collapsible=0;dropTarget=0;pointerEvents=0;fillColor=none;top=0;left=0;bottom=0;right=0;points=[[0,0.5],[1,0.5]];portConstraint=eastwest;" vertex="1" parent="b_Ao8sM2cp6gKVqPy1S7-34">
          <mxGeometry y="90" width="180" height="30" as="geometry" />
        </mxCell>
        <mxCell id="b_Ao8sM2cp6gKVqPy1S7-42" value="" style="shape=partialRectangle;connectable=0;fillColor=none;top=0;left=0;bottom=0;right=0;editable=1;overflow=hidden;" vertex="1" parent="b_Ao8sM2cp6gKVqPy1S7-41">
          <mxGeometry width="30" height="30" as="geometry" />
        </mxCell>
        <mxCell id="b_Ao8sM2cp6gKVqPy1S7-43" value="alt" style="shape=partialRectangle;connectable=0;fillColor=none;top=0;left=0;bottom=0;right=0;align=left;spacingLeft=6;overflow=hidden;" vertex="1" parent="b_Ao8sM2cp6gKVqPy1S7-41">
          <mxGeometry x="30" width="150" height="30" as="geometry" />
        </mxCell>
        <mxCell id="b_Ao8sM2cp6gKVqPy1S7-44" value="" style="shape=partialRectangle;collapsible=0;dropTarget=0;pointerEvents=0;fillColor=none;top=0;left=0;bottom=0;right=0;points=[[0,0.5],[1,0.5]];portConstraint=eastwest;" vertex="1" parent="b_Ao8sM2cp6gKVqPy1S7-34">
          <mxGeometry y="120" width="180" height="30" as="geometry" />
        </mxCell>
        <mxCell id="b_Ao8sM2cp6gKVqPy1S7-45" value="" style="shape=partialRectangle;connectable=0;fillColor=none;top=0;left=0;bottom=0;right=0;editable=1;overflow=hidden;" vertex="1" parent="b_Ao8sM2cp6gKVqPy1S7-44">
          <mxGeometry width="30" height="30" as="geometry" />
        </mxCell>
        <mxCell id="b_Ao8sM2cp6gKVqPy1S7-46" value="orden" style="shape=partialRectangle;connectable=0;fillColor=none;top=0;left=0;bottom=0;right=0;align=left;spacingLeft=6;overflow=hidden;" vertex="1" parent="b_Ao8sM2cp6gKVqPy1S7-44">
          <mxGeometry x="30" width="150" height="30" as="geometry" />
        </mxCell>
        <mxCell id="b_Ao8sM2cp6gKVqPy1S7-47" value="" style="shape=partialRectangle;collapsible=0;dropTarget=0;pointerEvents=0;fillColor=none;top=0;left=0;bottom=0;right=0;points=[[0,0.5],[1,0.5]];portConstraint=eastwest;" vertex="1" parent="b_Ao8sM2cp6gKVqPy1S7-34">
          <mxGeometry y="150" width="180" height="30" as="geometry" />
        </mxCell>
        <mxCell id="b_Ao8sM2cp6gKVqPy1S7-48" value="" style="shape=partialRectangle;connectable=0;fillColor=none;top=0;left=0;bottom=0;right=0;editable=1;overflow=hidden;" vertex="1" parent="b_Ao8sM2cp6gKVqPy1S7-47">
          <mxGeometry width="30" height="30" as="geometry" />
        </mxCell>
        <mxCell id="b_Ao8sM2cp6gKVqPy1S7-49" value="estado" style="shape=partialRectangle;connectable=0;fillColor=none;top=0;left=0;bottom=0;right=0;align=left;spacingLeft=6;overflow=hidden;" vertex="1" parent="b_Ao8sM2cp6gKVqPy1S7-47">
          <mxGeometry x="30" width="150" height="30" as="geometry" />
        </mxCell>
        <mxCell id="b_Ao8sM2cp6gKVqPy1S7-50" value="" style="shape=partialRectangle;collapsible=0;dropTarget=0;pointerEvents=0;fillColor=none;top=0;left=0;bottom=0;right=0;points=[[0,0.5],[1,0.5]];portConstraint=eastwest;" vertex="1" parent="b_Ao8sM2cp6gKVqPy1S7-34">
          <mxGeometry y="180" width="180" height="30" as="geometry" />
        </mxCell>
        <mxCell id="b_Ao8sM2cp6gKVqPy1S7-51" value="" style="shape=partialRectangle;connectable=0;fillColor=none;top=0;left=0;bottom=0;right=0;editable=1;overflow=hidden;" vertex="1" parent="b_Ao8sM2cp6gKVqPy1S7-50">
          <mxGeometry width="30" height="30" as="geometry" />
        </mxCell>
        <mxCell id="b_Ao8sM2cp6gKVqPy1S7-52" value="summer" style="shape=partialRectangle;connectable=0;fillColor=none;top=0;left=0;bottom=0;right=0;align=left;spacingLeft=6;overflow=hidden;" vertex="1" parent="b_Ao8sM2cp6gKVqPy1S7-50">
          <mxGeometry x="30" width="150" height="30" as="geometry" />
        </mxCell>
        <mxCell id="b_Ao8sM2cp6gKVqPy1S7-53" value="" style="edgeStyle=entityRelationEdgeStyle;fontSize=12;html=1;endArrow=ERoneToMany;entryX=-0.022;entryY=0.2;entryDx=0;entryDy=0;entryPerimeter=0;exitX=1;exitY=0.5;exitDx=0;exitDy=0;fillColor=#d5e8d4;strokeColor=#82b366;" edge="1" parent="b_Ao8sM2cp6gKVqPy1S7-1" source="b_Ao8sM2cp6gKVqPy1S7-2" target="b_Ao8sM2cp6gKVqPy1S7-28">
          <mxGeometry width="100" height="100" relative="1" as="geometry">
            <mxPoint x="210" y="260" as="sourcePoint" />
            <mxPoint x="310" y="160" as="targetPoint" />
          </mxGeometry>
        </mxCell>
        <mxCell id="b_Ao8sM2cp6gKVqPy1S7-54" value="" style="edgeStyle=entityRelationEdgeStyle;fontSize=12;html=1;endArrow=ERoneToMany;entryX=1;entryY=0.5;entryDx=0;entryDy=0;exitX=0;exitY=0.5;exitDx=0;exitDy=0;fillColor=#d5e8d4;strokeColor=#82b366;" edge="1" parent="b_Ao8sM2cp6gKVqPy1S7-1" source="b_Ao8sM2cp6gKVqPy1S7-41" target="b_Ao8sM2cp6gKVqPy1S7-28">
          <mxGeometry width="100" height="100" relative="1" as="geometry">
            <mxPoint x="360" y="330" as="sourcePoint" />
            <mxPoint x="460" y="230" as="targetPoint" />
          </mxGeometry>
        </mxCell>
        <mxCell id="b_Ao8sM2cp6gKVqPy1S7-55" value="idiomas" style="shape=table;startSize=30;container=1;collapsible=1;childLayout=tableLayout;fixedRows=1;rowLines=0;fontStyle=1;align=center;resizeLast=1;fillColor=#fff2cc;strokeColor=#d6b656;" vertex="1" collapsed="1" parent="b_Ao8sM2cp6gKVqPy1S7-1">
          <mxGeometry x="305" y="250" width="150" height="30" as="geometry">
            <mxRectangle x="280" y="300" width="180" height="160" as="alternateBounds" />
          </mxGeometry>
        </mxCell>
        <mxCell id="b_Ao8sM2cp6gKVqPy1S7-56" value="" style="shape=partialRectangle;collapsible=0;dropTarget=0;pointerEvents=0;fillColor=none;top=0;left=0;bottom=1;right=0;points=[[0,0.5],[1,0.5]];portConstraint=eastwest;" vertex="1" parent="b_Ao8sM2cp6gKVqPy1S7-55">
          <mxGeometry y="30" width="180" height="30" as="geometry" />
        </mxCell>
        <mxCell id="b_Ao8sM2cp6gKVqPy1S7-57" value="PK" style="shape=partialRectangle;connectable=0;fillColor=none;top=0;left=0;bottom=0;right=0;fontStyle=1;overflow=hidden;" vertex="1" parent="b_Ao8sM2cp6gKVqPy1S7-56">
          <mxGeometry width="30" height="30" as="geometry" />
        </mxCell>
        <mxCell id="b_Ao8sM2cp6gKVqPy1S7-58" value="id" style="shape=partialRectangle;connectable=0;fillColor=none;top=0;left=0;bottom=0;right=0;align=left;spacingLeft=6;fontStyle=5;overflow=hidden;" vertex="1" parent="b_Ao8sM2cp6gKVqPy1S7-56">
          <mxGeometry x="30" width="150" height="30" as="geometry" />
        </mxCell>
        <mxCell id="b_Ao8sM2cp6gKVqPy1S7-59" value="" style="shape=partialRectangle;collapsible=0;dropTarget=0;pointerEvents=0;fillColor=none;top=0;left=0;bottom=0;right=0;points=[[0,0.5],[1,0.5]];portConstraint=eastwest;" vertex="1" parent="b_Ao8sM2cp6gKVqPy1S7-55">
          <mxGeometry y="60" width="180" height="30" as="geometry" />
        </mxCell>
        <mxCell id="b_Ao8sM2cp6gKVqPy1S7-60" value="" style="shape=partialRectangle;connectable=0;fillColor=none;top=0;left=0;bottom=0;right=0;editable=1;overflow=hidden;" vertex="1" parent="b_Ao8sM2cp6gKVqPy1S7-59">
          <mxGeometry width="30" height="30" as="geometry" />
        </mxCell>
        <mxCell id="b_Ao8sM2cp6gKVqPy1S7-61" value="" style="shape=partialRectangle;connectable=0;fillColor=none;top=0;left=0;bottom=0;right=0;align=left;spacingLeft=6;overflow=hidden;" vertex="1" parent="b_Ao8sM2cp6gKVqPy1S7-59">
          <mxGeometry x="30" width="150" height="30" as="geometry" />
        </mxCell>
        <mxCell id="b_Ao8sM2cp6gKVqPy1S7-62" value="" style="shape=partialRectangle;collapsible=0;dropTarget=0;pointerEvents=0;fillColor=none;top=0;left=0;bottom=0;right=0;points=[[0,0.5],[1,0.5]];portConstraint=eastwest;" vertex="1" parent="b_Ao8sM2cp6gKVqPy1S7-55">
          <mxGeometry y="90" width="180" height="30" as="geometry" />
        </mxCell>
        <mxCell id="b_Ao8sM2cp6gKVqPy1S7-63" value="" style="shape=partialRectangle;connectable=0;fillColor=none;top=0;left=0;bottom=0;right=0;editable=1;overflow=hidden;" vertex="1" parent="b_Ao8sM2cp6gKVqPy1S7-62">
          <mxGeometry width="30" height="30" as="geometry" />
        </mxCell>
        <mxCell id="b_Ao8sM2cp6gKVqPy1S7-64" value="" style="shape=partialRectangle;connectable=0;fillColor=none;top=0;left=0;bottom=0;right=0;align=left;spacingLeft=6;overflow=hidden;" vertex="1" parent="b_Ao8sM2cp6gKVqPy1S7-62">
          <mxGeometry x="30" width="150" height="30" as="geometry" />
        </mxCell>
        <mxCell id="b_Ao8sM2cp6gKVqPy1S7-65" value="" style="shape=partialRectangle;collapsible=0;dropTarget=0;pointerEvents=0;fillColor=none;top=0;left=0;bottom=0;right=0;points=[[0,0.5],[1,0.5]];portConstraint=eastwest;" vertex="1" parent="b_Ao8sM2cp6gKVqPy1S7-55">
          <mxGeometry y="120" width="180" height="30" as="geometry" />
        </mxCell>
        <mxCell id="b_Ao8sM2cp6gKVqPy1S7-66" value="" style="shape=partialRectangle;connectable=0;fillColor=none;top=0;left=0;bottom=0;right=0;editable=1;overflow=hidden;" vertex="1" parent="b_Ao8sM2cp6gKVqPy1S7-65">
          <mxGeometry width="30" height="30" as="geometry" />
        </mxCell>
        <mxCell id="b_Ao8sM2cp6gKVqPy1S7-67" value="" style="shape=partialRectangle;connectable=0;fillColor=none;top=0;left=0;bottom=0;right=0;align=left;spacingLeft=6;overflow=hidden;" vertex="1" parent="b_Ao8sM2cp6gKVqPy1S7-65">
          <mxGeometry x="30" width="150" height="30" as="geometry" />
        </mxCell>
        <mxCell id="b_Ao8sM2cp6gKVqPy1S7-68" value="admins" style="shape=table;startSize=30;container=1;collapsible=1;childLayout=tableLayout;fixedRows=1;rowLines=0;fontStyle=1;align=center;resizeLast=1;fillColor=#fff2cc;strokeColor=#d6b656;" vertex="1" collapsed="1" parent="b_Ao8sM2cp6gKVqPy1S7-1">
          <mxGeometry x="305" y="460" width="150" height="30" as="geometry">
            <mxRectangle x="280" y="300" width="180" height="160" as="alternateBounds" />
          </mxGeometry>
        </mxCell>
        <mxCell id="b_Ao8sM2cp6gKVqPy1S7-69" value="" style="shape=partialRectangle;collapsible=0;dropTarget=0;pointerEvents=0;fillColor=none;top=0;left=0;bottom=1;right=0;points=[[0,0.5],[1,0.5]];portConstraint=eastwest;" vertex="1" parent="b_Ao8sM2cp6gKVqPy1S7-68">
          <mxGeometry y="30" width="180" height="30" as="geometry" />
        </mxCell>
        <mxCell id="b_Ao8sM2cp6gKVqPy1S7-70" value="PK" style="shape=partialRectangle;connectable=0;fillColor=none;top=0;left=0;bottom=0;right=0;fontStyle=1;overflow=hidden;" vertex="1" parent="b_Ao8sM2cp6gKVqPy1S7-69">
          <mxGeometry width="30" height="30" as="geometry" />
        </mxCell>
        <mxCell id="b_Ao8sM2cp6gKVqPy1S7-71" value="id" style="shape=partialRectangle;connectable=0;fillColor=none;top=0;left=0;bottom=0;right=0;align=left;spacingLeft=6;fontStyle=5;overflow=hidden;" vertex="1" parent="b_Ao8sM2cp6gKVqPy1S7-69">
          <mxGeometry x="30" width="150" height="30" as="geometry" />
        </mxCell>
        <mxCell id="b_Ao8sM2cp6gKVqPy1S7-72" value="" style="shape=partialRectangle;collapsible=0;dropTarget=0;pointerEvents=0;fillColor=none;top=0;left=0;bottom=0;right=0;points=[[0,0.5],[1,0.5]];portConstraint=eastwest;" vertex="1" parent="b_Ao8sM2cp6gKVqPy1S7-68">
          <mxGeometry y="60" width="180" height="30" as="geometry" />
        </mxCell>
        <mxCell id="b_Ao8sM2cp6gKVqPy1S7-73" value="" style="shape=partialRectangle;connectable=0;fillColor=none;top=0;left=0;bottom=0;right=0;editable=1;overflow=hidden;" vertex="1" parent="b_Ao8sM2cp6gKVqPy1S7-72">
          <mxGeometry width="30" height="30" as="geometry" />
        </mxCell>
        <mxCell id="b_Ao8sM2cp6gKVqPy1S7-74" value="" style="shape=partialRectangle;connectable=0;fillColor=none;top=0;left=0;bottom=0;right=0;align=left;spacingLeft=6;overflow=hidden;" vertex="1" parent="b_Ao8sM2cp6gKVqPy1S7-72">
          <mxGeometry x="30" width="150" height="30" as="geometry" />
        </mxCell>
        <mxCell id="b_Ao8sM2cp6gKVqPy1S7-75" value="" style="shape=partialRectangle;collapsible=0;dropTarget=0;pointerEvents=0;fillColor=none;top=0;left=0;bottom=0;right=0;points=[[0,0.5],[1,0.5]];portConstraint=eastwest;" vertex="1" parent="b_Ao8sM2cp6gKVqPy1S7-68">
          <mxGeometry y="90" width="180" height="30" as="geometry" />
        </mxCell>
        <mxCell id="b_Ao8sM2cp6gKVqPy1S7-76" value="" style="shape=partialRectangle;connectable=0;fillColor=none;top=0;left=0;bottom=0;right=0;editable=1;overflow=hidden;" vertex="1" parent="b_Ao8sM2cp6gKVqPy1S7-75">
          <mxGeometry width="30" height="30" as="geometry" />
        </mxCell>
        <mxCell id="b_Ao8sM2cp6gKVqPy1S7-77" value="" style="shape=partialRectangle;connectable=0;fillColor=none;top=0;left=0;bottom=0;right=0;align=left;spacingLeft=6;overflow=hidden;" vertex="1" parent="b_Ao8sM2cp6gKVqPy1S7-75">
          <mxGeometry x="30" width="150" height="30" as="geometry" />
        </mxCell>
        <mxCell id="b_Ao8sM2cp6gKVqPy1S7-78" value="" style="shape=partialRectangle;collapsible=0;dropTarget=0;pointerEvents=0;fillColor=none;top=0;left=0;bottom=0;right=0;points=[[0,0.5],[1,0.5]];portConstraint=eastwest;" vertex="1" parent="b_Ao8sM2cp6gKVqPy1S7-68">
          <mxGeometry y="120" width="180" height="30" as="geometry" />
        </mxCell>
        <mxCell id="b_Ao8sM2cp6gKVqPy1S7-79" value="" style="shape=partialRectangle;connectable=0;fillColor=none;top=0;left=0;bottom=0;right=0;editable=1;overflow=hidden;" vertex="1" parent="b_Ao8sM2cp6gKVqPy1S7-78">
          <mxGeometry width="30" height="30" as="geometry" />
        </mxCell>
        <mxCell id="b_Ao8sM2cp6gKVqPy1S7-80" value="" style="shape=partialRectangle;connectable=0;fillColor=none;top=0;left=0;bottom=0;right=0;align=left;spacingLeft=6;overflow=hidden;" vertex="1" parent="b_Ao8sM2cp6gKVqPy1S7-78">
          <mxGeometry x="30" width="150" height="30" as="geometry" />
        </mxCell>
        <mxCell id="b_Ao8sM2cp6gKVqPy1S7-81" value="" style="edgeStyle=entityRelationEdgeStyle;fontSize=12;html=1;endArrow=ERoneToMany;exitX=0;exitY=0.5;exitDx=0;exitDy=0;entryX=1;entryY=0.75;entryDx=0;entryDy=0;" edge="1" parent="b_Ao8sM2cp6gKVqPy1S7-1" source="b_Ao8sM2cp6gKVqPy1S7-68" target="b_Ao8sM2cp6gKVqPy1S7-2">
          <mxGeometry width="100" height="100" relative="1" as="geometry">
            <mxPoint x="360" y="330" as="sourcePoint" />
            <mxPoint x="460" y="230" as="targetPoint" />
          </mxGeometry>
        </mxCell>
        <mxCell id="b_Ao8sM2cp6gKVqPy1S7-82" value="" style="edgeStyle=entityRelationEdgeStyle;fontSize=12;html=1;endArrow=ERoneToMany;entryX=1.005;entryY=0.167;entryDx=0;entryDy=0;entryPerimeter=0;exitX=0;exitY=0.5;exitDx=0;exitDy=0;" edge="1" parent="b_Ao8sM2cp6gKVqPy1S7-1" source="b_Ao8sM2cp6gKVqPy1S7-55" target="b_Ao8sM2cp6gKVqPy1S7-21">
          <mxGeometry width="100" height="100" relative="1" as="geometry">
            <mxPoint x="360" y="330" as="sourcePoint" />
            <mxPoint x="460" y="230" as="targetPoint" />
          </mxGeometry>
        </mxCell>
        <mxCell id="b_Ao8sM2cp6gKVqPy1S7-83" value="estado" style="shape=partialRectangle;connectable=0;fillColor=none;top=0;left=0;bottom=0;right=0;align=left;spacingLeft=6;overflow=hidden;" vertex="1" parent="b_Ao8sM2cp6gKVqPy1S7-1">
          <mxGeometry x="60" y="470" width="153" height="30" as="geometry" />
        </mxCell>
        <mxCell id="71gnHK_9dNMdhlYVDOEu-1" value="ciudad_id" style="shape=partialRectangle;connectable=0;fillColor=none;top=0;left=0;bottom=0;right=0;align=left;spacingLeft=6;overflow=hidden;" vertex="1" parent="b_Ao8sM2cp6gKVqPy1S7-1">
          <mxGeometry x="60" y="410" width="153" height="30" as="geometry" />
        </mxCell>
        <mxCell id="71gnHK_9dNMdhlYVDOEu-2" value="servicio_id" style="shape=partialRectangle;connectable=0;fillColor=none;top=0;left=0;bottom=0;right=0;align=left;spacingLeft=6;overflow=hidden;" vertex="1" parent="b_Ao8sM2cp6gKVqPy1S7-1">
          <mxGeometry x="60" y="350" width="153" height="30" as="geometry" />
        </mxCell>
        <mxCell id="71gnHK_9dNMdhlYVDOEu-3" value="coordenadas" style="shape=partialRectangle;connectable=0;fillColor=none;top=0;left=0;bottom=0;right=0;align=left;spacingLeft=6;overflow=hidden;" vertex="1" parent="b_Ao8sM2cp6gKVqPy1S7-1">
          <mxGeometry x="60" y="380" width="153" height="30" as="geometry" />
        </mxCell>
        <mxCell id="71gnHK_9dNMdhlYVDOEu-4" value="orden" style="shape=partialRectangle;connectable=0;fillColor=none;top=0;left=0;bottom=0;right=0;align=left;spacingLeft=6;overflow=hidden;" vertex="1" parent="b_Ao8sM2cp6gKVqPy1S7-1">
          <mxGeometry x="60" y="440" width="153" height="30" as="geometry" />
        </mxCell>
        <mxCell id="71gnHK_9dNMdhlYVDOEu-5" value="ciudades" style="shape=table;startSize=30;container=1;collapsible=1;childLayout=tableLayout;fixedRows=1;rowLines=0;fontStyle=1;align=center;resizeLast=1;fillColor=#fff2cc;strokeColor=#d6b656;" vertex="1" collapsed="1" parent="b_Ao8sM2cp6gKVqPy1S7-1">
          <mxGeometry x="305" y="370" width="150" height="30" as="geometry">
            <mxRectangle x="280" y="300" width="180" height="160" as="alternateBounds" />
          </mxGeometry>
        </mxCell>
        <mxCell id="71gnHK_9dNMdhlYVDOEu-6" value="" style="shape=partialRectangle;collapsible=0;dropTarget=0;pointerEvents=0;fillColor=none;top=0;left=0;bottom=1;right=0;points=[[0,0.5],[1,0.5]];portConstraint=eastwest;" vertex="1" parent="71gnHK_9dNMdhlYVDOEu-5">
          <mxGeometry y="30" width="180" height="30" as="geometry" />
        </mxCell>
        <mxCell id="71gnHK_9dNMdhlYVDOEu-7" value="PK" style="shape=partialRectangle;connectable=0;fillColor=none;top=0;left=0;bottom=0;right=0;fontStyle=1;overflow=hidden;" vertex="1" parent="71gnHK_9dNMdhlYVDOEu-6">
          <mxGeometry width="30" height="30" as="geometry" />
        </mxCell>
        <mxCell id="71gnHK_9dNMdhlYVDOEu-8" value="id" style="shape=partialRectangle;connectable=0;fillColor=none;top=0;left=0;bottom=0;right=0;align=left;spacingLeft=6;fontStyle=5;overflow=hidden;" vertex="1" parent="71gnHK_9dNMdhlYVDOEu-6">
          <mxGeometry x="30" width="150" height="30" as="geometry" />
        </mxCell>
        <mxCell id="71gnHK_9dNMdhlYVDOEu-9" value="" style="shape=partialRectangle;collapsible=0;dropTarget=0;pointerEvents=0;fillColor=none;top=0;left=0;bottom=0;right=0;points=[[0,0.5],[1,0.5]];portConstraint=eastwest;" vertex="1" parent="71gnHK_9dNMdhlYVDOEu-5">
          <mxGeometry y="60" width="180" height="30" as="geometry" />
        </mxCell>
        <mxCell id="71gnHK_9dNMdhlYVDOEu-10" value="" style="shape=partialRectangle;connectable=0;fillColor=none;top=0;left=0;bottom=0;right=0;editable=1;overflow=hidden;" vertex="1" parent="71gnHK_9dNMdhlYVDOEu-9">
          <mxGeometry width="30" height="30" as="geometry" />
        </mxCell>
        <mxCell id="71gnHK_9dNMdhlYVDOEu-11" value="" style="shape=partialRectangle;connectable=0;fillColor=none;top=0;left=0;bottom=0;right=0;align=left;spacingLeft=6;overflow=hidden;" vertex="1" parent="71gnHK_9dNMdhlYVDOEu-9">
          <mxGeometry x="30" width="150" height="30" as="geometry" />
        </mxCell>
        <mxCell id="71gnHK_9dNMdhlYVDOEu-12" value="" style="shape=partialRectangle;collapsible=0;dropTarget=0;pointerEvents=0;fillColor=none;top=0;left=0;bottom=0;right=0;points=[[0,0.5],[1,0.5]];portConstraint=eastwest;" vertex="1" parent="71gnHK_9dNMdhlYVDOEu-5">
          <mxGeometry y="90" width="180" height="30" as="geometry" />
        </mxCell>
        <mxCell id="71gnHK_9dNMdhlYVDOEu-13" value="" style="shape=partialRectangle;connectable=0;fillColor=none;top=0;left=0;bottom=0;right=0;editable=1;overflow=hidden;" vertex="1" parent="71gnHK_9dNMdhlYVDOEu-12">
          <mxGeometry width="30" height="30" as="geometry" />
        </mxCell>
        <mxCell id="71gnHK_9dNMdhlYVDOEu-14" value="" style="shape=partialRectangle;connectable=0;fillColor=none;top=0;left=0;bottom=0;right=0;align=left;spacingLeft=6;overflow=hidden;" vertex="1" parent="71gnHK_9dNMdhlYVDOEu-12">
          <mxGeometry x="30" width="150" height="30" as="geometry" />
        </mxCell>
        <mxCell id="71gnHK_9dNMdhlYVDOEu-15" value="" style="shape=partialRectangle;collapsible=0;dropTarget=0;pointerEvents=0;fillColor=none;top=0;left=0;bottom=0;right=0;points=[[0,0.5],[1,0.5]];portConstraint=eastwest;" vertex="1" parent="71gnHK_9dNMdhlYVDOEu-5">
          <mxGeometry y="120" width="180" height="30" as="geometry" />
        </mxCell>
        <mxCell id="71gnHK_9dNMdhlYVDOEu-16" value="" style="shape=partialRectangle;connectable=0;fillColor=none;top=0;left=0;bottom=0;right=0;editable=1;overflow=hidden;" vertex="1" parent="71gnHK_9dNMdhlYVDOEu-15">
          <mxGeometry width="30" height="30" as="geometry" />
        </mxCell>
        <mxCell id="71gnHK_9dNMdhlYVDOEu-17" value="" style="shape=partialRectangle;connectable=0;fillColor=none;top=0;left=0;bottom=0;right=0;align=left;spacingLeft=6;overflow=hidden;" vertex="1" parent="71gnHK_9dNMdhlYVDOEu-15">
          <mxGeometry x="30" width="150" height="30" as="geometry" />
        </mxCell>
        <mxCell id="71gnHK_9dNMdhlYVDOEu-18" value="servicios" style="shape=table;startSize=30;container=1;collapsible=1;childLayout=tableLayout;fixedRows=1;rowLines=0;fontStyle=1;align=center;resizeLast=1;fillColor=#fff2cc;strokeColor=#d6b656;" vertex="1" collapsed="1" parent="b_Ao8sM2cp6gKVqPy1S7-1">
          <mxGeometry x="305" y="190" width="150" height="30" as="geometry">
            <mxRectangle x="280" y="300" width="180" height="160" as="alternateBounds" />
          </mxGeometry>
        </mxCell>
        <mxCell id="71gnHK_9dNMdhlYVDOEu-19" value="" style="shape=partialRectangle;collapsible=0;dropTarget=0;pointerEvents=0;fillColor=none;top=0;left=0;bottom=1;right=0;points=[[0,0.5],[1,0.5]];portConstraint=eastwest;" vertex="1" parent="71gnHK_9dNMdhlYVDOEu-18">
          <mxGeometry y="30" width="180" height="30" as="geometry" />
        </mxCell>
        <mxCell id="71gnHK_9dNMdhlYVDOEu-20" value="PK" style="shape=partialRectangle;connectable=0;fillColor=none;top=0;left=0;bottom=0;right=0;fontStyle=1;overflow=hidden;" vertex="1" parent="71gnHK_9dNMdhlYVDOEu-19">
          <mxGeometry width="30" height="30" as="geometry" />
        </mxCell>
        <mxCell id="71gnHK_9dNMdhlYVDOEu-21" value="id" style="shape=partialRectangle;connectable=0;fillColor=none;top=0;left=0;bottom=0;right=0;align=left;spacingLeft=6;fontStyle=5;overflow=hidden;" vertex="1" parent="71gnHK_9dNMdhlYVDOEu-19">
          <mxGeometry x="30" width="150" height="30" as="geometry" />
        </mxCell>
        <mxCell id="71gnHK_9dNMdhlYVDOEu-22" value="" style="shape=partialRectangle;collapsible=0;dropTarget=0;pointerEvents=0;fillColor=none;top=0;left=0;bottom=0;right=0;points=[[0,0.5],[1,0.5]];portConstraint=eastwest;" vertex="1" parent="71gnHK_9dNMdhlYVDOEu-18">
          <mxGeometry y="60" width="180" height="30" as="geometry" />
        </mxCell>
        <mxCell id="71gnHK_9dNMdhlYVDOEu-23" value="" style="shape=partialRectangle;connectable=0;fillColor=none;top=0;left=0;bottom=0;right=0;editable=1;overflow=hidden;" vertex="1" parent="71gnHK_9dNMdhlYVDOEu-22">
          <mxGeometry width="30" height="30" as="geometry" />
        </mxCell>
        <mxCell id="71gnHK_9dNMdhlYVDOEu-24" value="" style="shape=partialRectangle;connectable=0;fillColor=none;top=0;left=0;bottom=0;right=0;align=left;spacingLeft=6;overflow=hidden;" vertex="1" parent="71gnHK_9dNMdhlYVDOEu-22">
          <mxGeometry x="30" width="150" height="30" as="geometry" />
        </mxCell>
        <mxCell id="71gnHK_9dNMdhlYVDOEu-25" value="" style="shape=partialRectangle;collapsible=0;dropTarget=0;pointerEvents=0;fillColor=none;top=0;left=0;bottom=0;right=0;points=[[0,0.5],[1,0.5]];portConstraint=eastwest;" vertex="1" parent="71gnHK_9dNMdhlYVDOEu-18">
          <mxGeometry y="90" width="180" height="30" as="geometry" />
        </mxCell>
        <mxCell id="71gnHK_9dNMdhlYVDOEu-26" value="" style="shape=partialRectangle;connectable=0;fillColor=none;top=0;left=0;bottom=0;right=0;editable=1;overflow=hidden;" vertex="1" parent="71gnHK_9dNMdhlYVDOEu-25">
          <mxGeometry width="30" height="30" as="geometry" />
        </mxCell>
        <mxCell id="71gnHK_9dNMdhlYVDOEu-27" value="" style="shape=partialRectangle;connectable=0;fillColor=none;top=0;left=0;bottom=0;right=0;align=left;spacingLeft=6;overflow=hidden;" vertex="1" parent="71gnHK_9dNMdhlYVDOEu-25">
          <mxGeometry x="30" width="150" height="30" as="geometry" />
        </mxCell>
        <mxCell id="71gnHK_9dNMdhlYVDOEu-28" value="" style="shape=partialRectangle;collapsible=0;dropTarget=0;pointerEvents=0;fillColor=none;top=0;left=0;bottom=0;right=0;points=[[0,0.5],[1,0.5]];portConstraint=eastwest;" vertex="1" parent="71gnHK_9dNMdhlYVDOEu-18">
          <mxGeometry y="120" width="180" height="30" as="geometry" />
        </mxCell>
        <mxCell id="71gnHK_9dNMdhlYVDOEu-29" value="" style="shape=partialRectangle;connectable=0;fillColor=none;top=0;left=0;bottom=0;right=0;editable=1;overflow=hidden;" vertex="1" parent="71gnHK_9dNMdhlYVDOEu-28">
          <mxGeometry width="30" height="30" as="geometry" />
        </mxCell>
        <mxCell id="71gnHK_9dNMdhlYVDOEu-30" value="" style="shape=partialRectangle;connectable=0;fillColor=none;top=0;left=0;bottom=0;right=0;align=left;spacingLeft=6;overflow=hidden;" vertex="1" parent="71gnHK_9dNMdhlYVDOEu-28">
          <mxGeometry x="30" width="150" height="30" as="geometry" />
        </mxCell>
        <mxCell id="71gnHK_9dNMdhlYVDOEu-31" value="" style="edgeStyle=entityRelationEdgeStyle;fontSize=12;html=1;endArrow=ERoneToMany;entryX=0.995;entryY=0.733;entryDx=0;entryDy=0;entryPerimeter=0;exitX=0;exitY=0.5;exitDx=0;exitDy=0;" edge="1" parent="b_Ao8sM2cp6gKVqPy1S7-1" source="71gnHK_9dNMdhlYVDOEu-5" target="b_Ao8sM2cp6gKVqPy1S7-21">
          <mxGeometry width="100" height="100" relative="1" as="geometry">
            <mxPoint x="315" y="275" as="sourcePoint" />
            <mxPoint x="223.91499999999996" y="335.01" as="targetPoint" />
          </mxGeometry>
        </mxCell>
        <mxCell id="71gnHK_9dNMdhlYVDOEu-32" value="" style="edgeStyle=entityRelationEdgeStyle;fontSize=12;html=1;endArrow=ERoneToMany;exitX=0;exitY=0.5;exitDx=0;exitDy=0;entryX=1;entryY=0.5;entryDx=0;entryDy=0;" edge="1" parent="b_Ao8sM2cp6gKVqPy1S7-1" source="71gnHK_9dNMdhlYVDOEu-18" target="b_Ao8sM2cp6gKVqPy1S7-12">
          <mxGeometry width="100" height="100" relative="1" as="geometry">
            <mxPoint x="325" y="285" as="sourcePoint" />
            <mxPoint x="320" y="420" as="targetPoint" />
          </mxGeometry>
        </mxCell>
      </root>
    </mxGraphModel>
  </diagram>
</mxfile>
